<?xml version="1.0" encoding="UTF-8"?>
<svg width="128" height="128" version="1.1" viewBox="0 0 33.867 33.867" xmlns="http://www.w3.org/2000/svg"><circle cx="16.934" cy="16.934" r="16.934" style="fill:#2c5cb0;paint-order:stroke markers fill;stroke-linecap:round;stroke-linejoin:round;stroke-width:3.5385"/><path d="m21.912 4.6773v5.168e-4c-1.5009-0.03037-5.7436 0.25434-9.5685 3.9993l-2.8071-2.788c-0.12566-0.1214-0.29271-0.18628-0.46354-0.18552-0.27105 0.0012-0.55008 0.17563-0.63459 0.48266-0.06178 0.22388 5.17e-5 0.46382 0.16278 0.63046l1.679 1.6692-7.2761 7.2193c-0.68012 0.67446-0.68006 1.7897-0.0010336 2.465l6.5625 6.5273c0.67912 0.67547 1.8027 0.67627 2.4826 0.002067l6.9769-6.9185c0.63983-0.63452 0.67852-1.6604 0.11472-2.3415 0.55655-0.22167 1.007-0.06645 1.3736 0.34727-0.39778 0.48098-0.5153 1.1734-0.23978 1.7642l1.1353 2.434c0.10127 0.21718 0.24699 0.39928 0.42013 0.54312 0.25557 2.6457 0.20112 8.7301 0.13953 12.554a16.934 16.934 0 0 0 9.3385-7.2286c-0.04165-3.662-0.10301-8.1683-1.0191-12.093 1.0178-0.50544 1.1848-1.5232 0.85577-2.2288l-1.1348-2.434c-0.3501-0.75078-1.22-1.0949-1.9797-0.81184-2.3854-3.4174-5.6749-3.6001-6.117-3.6091zm-1.3519 1.5911c0.33598 0.013896 0.65036 0.21031 0.80461 0.54106l1.1353 2.435c0.22433 0.48106 0.022272 1.058-0.45321 1.294l-2.4748 1.2284c-0.47546 0.23599-1.0391 0.03873-1.2635-0.44235l-1.1353-2.4345c-0.22433-0.48106-0.022273-1.0585 0.45321-1.2945l2.4753-1.2284c0.14858-0.073746 0.30566-0.10502 0.45838-0.098703zm8.0533 2.5813c0.33598 0.013899 0.65036 0.21085 0.80461 0.54157l1.1353 2.4345c0.22433 0.48106 0.021728 1.058-0.45372 1.294l-2.4748 1.2289c-0.47545 0.23599-1.0386 0.038195-1.263-0.44287l-1.1353-2.4345c-0.22433-0.48106-0.022244-1.058 0.45321-1.294l2.4748-1.2284c0.14858-0.073746 0.30617-0.10554 0.45889-0.09922zm-17.375 0.7488c0.11116 8.53e-5 0.21897 0.03961 0.308 0.12816l6.6012 6.5842c0.12955 0.17244 0.1223 0.39376-0.038758 0.55346l-6.9764 6.9185c-0.17849 0.17699-0.43743 0.17711-0.61547 0l-6.6188-6.6095c-0.11023-0.16869-0.097443-0.37615 0.055811-0.52814l6.9774-6.9201c0.089205-0.088455 0.19614-0.12669 0.30696-0.12661zm13.011 5.0385c0.33598 0.013897 0.65036 0.21032 0.80461 0.54106l1.1353 2.4345c0.22433 0.48106 0.022244 1.0586-0.45321 1.2945l-2.4748 1.2284c-0.47545 0.23599-1.0391 0.038711-1.2635-0.44235l-1.1353-2.4345c-0.22433-0.48106-0.021728-1.0586 0.45372-1.2945l2.4748-1.2284c0.14858-0.073746 0.30566-0.10502 0.45837-0.098703z" style="fill:#fff;paint-order:stroke markers fill;stroke-linecap:round;stroke-linejoin:round;stroke-width:3.5385"/></svg>
